<svg id="arrow-right" width="68" height="54" viewBox="0 0 68 68" fill="none" xmlns="http://www.w3.org/2000/svg">
<path d="M62.2939 8.40346L52.9682 48.0401C52.7738 48.8665 52.2524 49.6193 51.5188 50.133C50.7852 50.6467 49.8995 50.8791 49.0564 50.7792C48.2134 50.6792 47.4821 50.2551 47.0235 49.6001C46.5648 48.9451 46.4164 48.1129 46.6108 47.2865L54.1706 15.1674L0.02394 53.0813C-0.70926 53.5947 -1.59452 53.827 -2.4371 53.7271C-3.27967 53.6272 -4.01055 53.2033 -4.46893 52.5487C-4.92732 51.8941 -5.07567 51.0623 -4.88134 50.2364C-4.68702 49.4104 -4.16595 48.658 -3.43275 48.1446L50.714 10.2307L17.9463 6.34922C17.1032 6.24929 16.3719 5.82517 15.9133 5.17016C15.4547 4.51516 15.3062 3.68292 15.5007 2.85654C15.6951 2.03015 16.2164 1.27732 16.9501 0.763639C17.6837 0.249964 18.5694 0.0175249 19.4125 0.117462L59.8483 4.91077C60.2658 4.96003 60.6604 5.08948 61.0093 5.29172C61.3582 5.49395 61.6547 5.76501 61.8819 6.08939C62.109 6.41376 62.2623 6.7851 62.333 7.18216C62.4037 7.57923 62.3904 7.99424 62.2939 8.40346Z" fill="white"/>
</svg>
