<svg id="arrow-right-small" width="37" height="38" viewBox="0 0 37 38" fill="none" xmlns="http://www.w3.org/2000/svg">
<path d="M26.3092 14.2552L24.5825 24.0478C24.5465 24.2519 24.4309 24.4334 24.261 24.5524C24.0912 24.6713 23.8811 24.7178 23.6769 24.6818C23.4728 24.6458 23.2913 24.5302 23.1724 24.3604C23.0534 24.1906 23.0069 23.9805 23.0429 23.7763L24.4428 15.841L11.9083 24.6177C11.7386 24.7366 11.5286 24.7831 11.3245 24.7471C11.1205 24.7112 10.9391 24.5956 10.8202 24.4259C10.7014 24.2561 10.6548 24.0461 10.6908 23.8421C10.7268 23.638 10.8424 23.4566 11.0121 23.3378L23.5466 14.5611L15.611 13.1625C15.4069 13.1265 15.2254 13.0109 15.1064 12.8411C14.9875 12.6712 14.941 12.4611 14.977 12.257C15.013 12.0528 15.1286 11.8713 15.2984 11.7524C15.4682 11.6335 15.6783 11.5869 15.8825 11.6229L25.6751 13.3496C25.7762 13.3674 25.8729 13.4049 25.9595 13.46C26.0461 13.5152 26.121 13.5869 26.1798 13.671C26.2387 13.7551 26.2805 13.8499 26.3027 13.9502C26.3249 14.0504 26.3271 14.1541 26.3092 14.2552Z" fill="white"/>
</svg>
