<svg id="arrow-step-one" width="30" height="31" viewBox="0 0 30 31" fill="none" xmlns="http://www.w3.org/2000/svg">
<path d="M19.025 16.9928C18.805 16.774 18.7087 16.4603 18.7663 16.1553C18.8238 15.8503 19.0287 15.5928 19.3137 15.469L24.7525 13.3815C25.1025 13.2228 25.3188 12.8665 25.3013 12.4828C25.2825 12.099 25.0325 11.7653 24.6688 11.6415L5.91125 5.51528C5.57875 5.41278 5.2175 5.50278 4.9725 5.74903C4.72625 5.99403 4.63625 6.35528 4.73875 6.68778L10.8613 25.449C10.9863 25.8128 11.3187 26.0628 11.7025 26.0815C12.0863 26.099 12.4425 25.8815 12.6012 25.5328L14.69 20.094C14.8138 19.809 15.07 19.604 15.375 19.5465C15.68 19.489 15.9937 19.5853 16.2125 19.8053L22.2262 25.8178C22.5912 26.184 23.185 26.184 23.5513 25.8178L25.0388 24.3353C25.4038 23.969 25.4038 23.3753 25.0388 23.009L19.025 16.9928Z" fill="white" fill-opacity="0.2"/>
<path d="M11.25 2.65527V3.59277" stroke="white" stroke-width="1.875" stroke-linecap="round" stroke-linejoin="round"/>
<path d="M1.875 12.0303H2.8125" stroke="white" stroke-width="1.875" stroke-linecap="round" stroke-linejoin="round"/>
<path d="M15 4.53027L15.9375 2.65527" stroke="white" stroke-width="1.875" stroke-linecap="round" stroke-linejoin="round"/>
<path d="M3.75 15.7803L1.875 16.7178" stroke="white" stroke-width="1.875" stroke-linecap="round" stroke-linejoin="round"/>
<path d="M19.025 16.9928C18.805 16.774 18.7088 16.4603 18.7663 16.1553C18.8238 15.8503 19.0287 15.5928 19.3137 15.469L24.7525 13.3815C25.1025 13.2228 25.3188 12.8665 25.3013 12.4828C25.2825 12.099 25.0325 11.7653 24.6688 11.6415L5.91125 5.51528C5.57875 5.41278 5.2175 5.50278 4.9725 5.74903C4.72625 5.99403 4.63625 6.35528 4.73875 6.68778L10.8613 25.449C10.9863 25.8128 11.3188 26.0628 11.7025 26.0815C12.0863 26.099 12.4425 25.8815 12.6012 25.5328L14.69 20.094C14.8137 19.809 15.07 19.604 15.375 19.5465C15.68 19.489 15.9937 19.5853 16.2125 19.8053L22.2262 25.8178C22.5912 26.184 23.185 26.184 23.5513 25.8178L25.0388 24.3353C25.4038 23.969 25.4038 23.3753 25.0388 23.009L19.025 16.9928Z" stroke="white" stroke-width="1.875" stroke-linecap="round" stroke-linejoin="round"/>
</svg>
