<svg id="dribbble" width="40" height="40" viewBox="0 0 40 40" fill="none" xmlns="http://www.w3.org/2000/svg">
<rect width="40" height="40" rx="20" fill="#080808"/>
<path d="M11 20C11 15.029 15.029 11 20 11C24.971 11 29 15.029 29 20C29 24.971 24.971 29 20 29C15.029 29 11 24.971 11 20Z" stroke="white" stroke-width="1.5" stroke-linecap="round" stroke-linejoin="round"/>
<path d="M14.656 27.244C17.372 22.745 22.245 19.997 27.5 20C28.005 20 28.506 20.025 29 20.074" stroke="white" stroke-width="1.5" stroke-linecap="round" stroke-linejoin="round"/>
<path d="M25.625 12.9771C22.779 16.4751 18.508 18.5031 14 18.5001C13.051 18.5001 12.104 18.4111 11.172 18.2341" stroke="white" stroke-width="1.5" stroke-linecap="round" stroke-linejoin="round"/>
<path d="M16.056 11.9082C20.646 14.6002 23.465 19.5242 23.462 24.8462C23.463 26.0712 23.314 27.2922 23.019 28.4812" stroke="white" stroke-width="1.5" stroke-linecap="round" stroke-linejoin="round"/>
</svg>
