<svg id="rocket-step-four" width="30" height="31" viewBox="0 0 30 31" fill="none" xmlns="http://www.w3.org/2000/svg">
<path d="M21.5625 14.8428V22.0678C21.5625 22.3153 21.4638 22.554 21.2888 22.729L17.2625 26.7553C17.0113 27.0053 16.64 27.0928 16.3038 26.9803C15.9675 26.8678 15.7225 26.5753 15.6725 26.224L15 21.4053L21.5625 14.8428Z" fill="white" fill-opacity="0.2"/>
<path d="M15.9375 9.21777H8.71254C8.46379 9.21777 8.22629 9.31652 8.05004 9.49152L4.02504 13.5178C3.77504 13.769 3.68754 14.1403 3.80004 14.4765C3.91254 14.8128 4.20504 15.0578 4.55629 15.1078L9.37504 15.7803L15.9375 9.21777Z" fill="white" fill-opacity="0.2"/>
<path d="M11.0812 22.7905C10.6275 23.7855 9.1 26.093 4.6875 26.093C4.6875 21.6805 6.995 20.153 7.99 19.6992L11.0812 22.7905Z" fill="white" fill-opacity="0.2"/>
<path d="M22.3962 14.009C25.2087 11.1965 25.3838 7.8515 25.2963 6.359C25.2663 5.889 24.8912 5.514 24.4212 5.484C22.9287 5.3965 19.585 5.57025 16.7712 8.384L9.375 15.7803L15 21.4053L22.3962 14.009Z" stroke="white" stroke-width="1.875" stroke-linecap="round" stroke-linejoin="round"/>
<path d="M15.9375 9.21777H8.71254C8.46379 9.21777 8.22629 9.31652 8.05004 9.49152L4.02504 13.5178C3.77504 13.769 3.68754 14.1403 3.80004 14.4765C3.91254 14.8128 4.20504 15.0578 4.55629 15.1078L9.37504 15.7803" stroke="white" stroke-width="1.875" stroke-linecap="round" stroke-linejoin="round"/>
<path d="M21.5625 14.8428V22.0678C21.5625 22.3153 21.4638 22.554 21.2888 22.729L17.2625 26.7553C17.0112 27.0053 16.64 27.0928 16.3037 26.9803C15.9675 26.8678 15.7225 26.5753 15.6725 26.224L15 21.4053" stroke="white" stroke-width="1.875" stroke-linecap="round" stroke-linejoin="round"/>
<path d="M11.0812 22.7905C10.6275 23.7855 9.1 26.093 4.6875 26.093C4.6875 21.6805 6.995 20.153 7.99 19.6992" stroke="white" stroke-width="1.875" stroke-linecap="round" stroke-linejoin="round"/>
</svg>
