<svg id="target" width="25" height="25" viewBox="0 0 25 25" fill="none" xmlns="http://www.w3.org/2000/svg">
<path opacity="0.2" d="M17.1875 12.5C17.1875 13.4271 16.9126 14.3334 16.3975 15.1042C15.8824 15.8751 15.1504 16.4759 14.2938 16.8307C13.4373 17.1855 12.4948 17.2783 11.5855 17.0974C10.6762 16.9166 9.841 16.4701 9.18544 15.8146C8.52988 15.159 8.08344 14.3238 7.90257 13.4145C7.7217 12.5052 7.81453 11.5627 8.16932 10.7062C8.5241 9.84964 9.12491 9.11756 9.89577 8.60249C10.6666 8.08742 11.5729 7.8125 12.5 7.8125C13.7432 7.8125 14.9355 8.30636 15.8146 9.18544C16.6936 10.0645 17.1875 11.2568 17.1875 12.5Z" fill="white"/>
<path d="M21.6672 8.12112C22.7513 10.3885 22.9571 12.9771 22.2449 15.3873C21.5327 17.7975 19.9529 19.8584 17.8105 21.1724C15.6681 22.4863 13.1149 22.9601 10.6437 22.5023C8.17255 22.0444 5.95855 20.6875 4.42902 18.6933C2.8995 16.699 2.16289 14.209 2.36135 11.7036C2.55982 9.19819 3.67929 6.85512 5.5037 5.12659C7.32812 3.39805 9.72815 2.40658 12.2406 2.34353C14.753 2.28049 17.1998 3.15033 19.1086 4.78518L21.3225 2.57034C21.4691 2.42374 21.6679 2.34139 21.8752 2.34139C22.0825 2.34139 22.2813 2.42374 22.4279 2.57034C22.5745 2.71693 22.6569 2.91575 22.6569 3.12307C22.6569 3.33038 22.5745 3.52921 22.4279 3.6758L13.0529 13.0508C12.9063 13.1974 12.7075 13.2798 12.5002 13.2798C12.2929 13.2798 12.0941 13.1974 11.9475 13.0508C11.8009 12.9042 11.7185 12.7054 11.7185 12.4981C11.7185 12.2908 11.8009 12.0919 11.9475 11.9453L14.6545 9.2383C13.9209 8.7531 13.0449 8.5297 12.1685 8.60427C11.2921 8.67883 10.4665 9.047 9.8254 9.64916C9.18428 10.2513 8.76514 11.0522 8.63585 11.9223C8.50656 12.7923 8.67469 13.6805 9.113 14.4431C9.55132 15.2056 10.2342 15.798 11.051 16.1242C11.8679 16.4503 12.7709 16.4913 13.6139 16.2404C14.457 15.9895 15.1906 15.4614 15.6962 14.7417C16.2018 14.0219 16.4496 13.1526 16.3996 12.2744C16.3938 12.1718 16.4083 12.0691 16.4423 11.9721C16.4762 11.8751 16.5289 11.7858 16.5974 11.7091C16.6658 11.6325 16.7487 11.5701 16.8413 11.5255C16.9339 11.4809 17.0343 11.455 17.1369 11.4492C17.3441 11.4376 17.5475 11.5087 17.7022 11.647C17.7788 11.7155 17.8412 11.7983 17.8858 11.8909C17.9304 11.9835 17.9563 12.084 17.9621 12.1865C18.0333 13.4295 17.6783 14.6595 16.9558 15.6734C16.2332 16.6872 15.1863 17.4242 13.9881 17.7624C12.79 18.1007 11.5123 18.02 10.3662 17.5337C9.22012 17.0474 8.27427 16.1846 7.68498 15.0879C7.09569 13.9912 6.89823 12.7263 7.12525 11.5022C7.35227 10.2781 7.99018 9.16807 8.93353 8.35562C9.87688 7.54316 11.0692 7.07691 12.3135 7.03392C13.5577 6.99093 14.7794 7.37376 15.7766 8.11916L17.9982 5.89748C16.3701 4.54572 14.3 3.84315 12.1854 3.92471C10.0708 4.00626 8.06095 4.8662 6.54178 6.33934C5.02261 7.81249 4.10128 9.79498 3.95473 11.906C3.80818 14.0171 4.44676 16.1079 5.74781 17.7768C7.04886 19.4457 8.92065 20.5751 11.0037 20.9481C13.0867 21.321 15.234 20.9112 17.0333 19.7974C18.8326 18.6835 20.1569 16.9442 20.752 14.9134C21.347 12.8827 21.1707 10.7037 20.257 8.79494C20.1677 8.60795 20.1563 8.39311 20.2253 8.1977C20.2944 8.00229 20.4382 7.84231 20.6252 7.75295C20.8122 7.6636 21.027 7.65219 21.2224 7.72123C21.4179 7.79027 21.5778 7.93412 21.6672 8.12112Z" fill="white"/>
</svg>
