<svg id="arrow-right" width="68" height="54" viewBox="0 0 68 54" fill="none" xmlns="http://www.w3.org/2000/svg">
<path d="M67.8939 8.40346L58.5682 48.0401C58.3738 48.8665 57.8524 49.6193 57.1188 50.133C56.3852 50.6467 55.4995 50.8791 54.6564 50.7792C53.8134 50.6792 53.0821 50.2551 52.6235 49.6001C52.1648 48.9451 52.0164 48.1129 52.2108 47.2865L59.7706 15.1674L5.62394 53.0813C4.89074 53.5947 4.00548 53.827 3.1629 53.7271C2.32033 53.6272 1.58945 53.2033 1.13107 52.5487C0.672681 51.8941 0.524333 51.0623 0.718655 50.2364C0.912977 49.4104 1.43405 48.658 2.16725 48.1446L56.314 10.2307L23.5463 6.34922C22.7032 6.24929 21.9719 5.82517 21.5133 5.17016C21.0547 4.51516 20.9062 3.68292 21.1007 2.85654C21.2951 2.03015 21.8164 1.27732 22.5501 0.763639C23.2837 0.249964 24.1694 0.0175249 25.0125 0.117462L65.4483 4.91077C65.8658 4.96003 66.2604 5.08948 66.6093 5.29172C66.9582 5.49395 67.2547 5.76501 67.4819 6.08939C67.709 6.41376 67.8623 6.7851 67.933 7.18216C68.0037 7.57923 67.9904 7.99424 67.8939 8.40346Z" fill="white"/>
</svg>
