<svg
  id="chevron-down-gray"
  class="block"
  width="18"
  height="11"
  viewBox="0 0 18 11"
  fill="none"
  xmlns="http://www.w3.org/2000/svg"
>
  <path
    d="M17.6416 2.44405L9.82912 10.2565C9.72025 10.3658 9.59088 10.4525 9.44844 10.5116C9.306 10.5708 9.15328 10.6012 8.99904 10.6012C8.84481 10.6012 8.69209 10.5708 8.54965 10.5116C8.4072 10.4525 8.27783 10.3658 8.16896 10.2565L0.356464 2.44405C0.136314 2.2239 0.0126343 1.92531 0.0126343 1.61397C0.0126343 1.30263 0.136314 1.00404 0.356464 0.783893C0.576614 0.563743 0.875202 0.440064 1.18654 0.440064C1.49788 0.440064 1.79647 0.563743 2.01662 0.783893L9.00002 7.76729L15.9834 0.782917C16.2036 0.562767 16.5022 0.439087 16.8135 0.439087C17.1248 0.439087 17.4234 0.562767 17.6436 0.782917C17.8637 1.00307 17.9874 1.30166 17.9874 1.613C17.9874 1.92433 17.8637 2.22292 17.6436 2.44307L17.6416 2.44405Z"
    fill="#ffffff33"
  />
</svg>
