<svg id="magic-stick-step-three" width="30" height="31" viewBox="0 0 30 31" fill="none" xmlns="http://www.w3.org/2000/svg">
<path d="M8.71125 25.819C8.34625 26.184 7.7525 26.184 7.38625 25.819L4.96125 23.3978C4.59625 23.0315 4.59625 22.4378 4.96125 22.0715L16.875 10.1553L20.625 13.9053L8.71125 25.819Z" fill="white" fill-opacity="0.2"/>
<path d="M25.3125 15.7803V21.4053" stroke="white" stroke-width="1.875" stroke-linecap="round" stroke-linejoin="round"/>
<path d="M22.5 18.5928H28.125" stroke="white" stroke-width="1.875" stroke-linecap="round" stroke-linejoin="round"/>
<path d="M9.375 5.46777V11.0928" stroke="white" stroke-width="1.875" stroke-linecap="round" stroke-linejoin="round"/>
<path d="M6.5625 8.28027H12.1875" stroke="white" stroke-width="1.875" stroke-linecap="round" stroke-linejoin="round"/>
<path d="M19.6875 22.3428V26.0928" stroke="white" stroke-width="1.875" stroke-linecap="round" stroke-linejoin="round"/>
<path d="M17.8125 24.2178H21.5625" stroke="white" stroke-width="1.875" stroke-linecap="round" stroke-linejoin="round"/>
<path d="M16.875 10.1553L20.625 13.9053" stroke="white" stroke-width="1.875" stroke-linecap="round" stroke-linejoin="round"/>
<path d="M8.71124 25.818C8.34499 26.1842 7.75249 26.1842 7.38624 25.818L4.96249 23.3942C4.59624 23.0279 4.59624 22.4342 4.96249 22.0679L21.2875 5.74295C21.6537 5.3767 22.2475 5.3767 22.6137 5.74295L25.0375 8.1667C25.4037 8.53295 25.4037 9.12545 25.0375 9.4917L8.71124 25.818Z" stroke="white" stroke-width="1.875" stroke-linecap="round" stroke-linejoin="round"/>
</svg>
