<svg id='puzzle' width="25" height="25" viewBox="0 0 25 25" fill="none" xmlns="http://www.w3.org/2000/svg">
<path opacity="0.2" d="M19.9219 16.4062C20.3272 16.4066 20.7274 16.3168 21.0938 16.1435V20.3124C21.0938 20.5196 21.0115 20.7184 20.8649 20.8649C20.7184 21.0114 20.5197 21.0937 20.3125 21.0937H6.25001C6.04281 21.0937 5.8441 21.0114 5.69759 20.8649C5.55107 20.7184 5.46876 20.5196 5.46876 20.3124V16.1435C5.052 16.3407 4.59213 16.4293 4.13193 16.4011C3.67173 16.3728 3.22614 16.2287 2.8366 15.9821C2.44705 15.7354 2.12619 15.3943 1.90386 14.9904C1.68153 14.5865 1.56494 14.1329 1.56494 13.6718C1.56494 13.2108 1.68153 12.7572 1.90386 12.3533C2.12619 11.9493 2.44705 11.6082 2.8366 11.3616C3.22614 11.1149 3.67173 10.9708 4.13193 10.9426C4.59213 10.9144 5.052 11.003 5.46876 11.2001V7.0312C5.46876 6.824 5.55107 6.62528 5.69759 6.47877C5.8441 6.33226 6.04281 6.24995 6.25001 6.24995H10.8096C10.6122 5.83317 10.5234 5.37324 10.5515 4.91294C10.5796 4.45263 10.7236 4.00691 10.9702 3.61723C11.2168 3.22755 11.558 2.90657 11.962 2.68415C12.3659 2.46173 12.8196 2.34509 13.2808 2.34509C13.7419 2.34509 14.1956 2.46173 14.5996 2.68415C15.0036 2.90657 15.3447 3.22755 15.5913 3.61723C15.8379 4.00691 15.982 4.45263 16.0101 4.91294C16.0382 5.37324 15.9494 5.83317 15.752 6.24995H20.3125C20.5197 6.24995 20.7184 6.33226 20.8649 6.47877C21.0115 6.62528 21.0938 6.824 21.0938 7.0312V11.2001C20.7233 11.0248 20.3181 10.9351 19.9082 10.9375C19.4983 10.9399 19.0942 11.0345 18.7258 11.2141C18.3574 11.3938 18.0341 11.654 17.7798 11.9754C17.5255 12.2969 17.3467 12.6715 17.2567 13.0713C17.1667 13.4712 17.1677 13.8862 17.2597 14.2857C17.3518 14.6851 17.5324 15.0587 17.7883 15.3789C18.0442 15.6991 18.3688 15.9577 18.7381 16.1355C19.1074 16.3133 19.512 16.4058 19.9219 16.4062Z" fill="white"/>
<path d="M21.5107 15.4824C21.3993 15.4121 21.272 15.3712 21.1405 15.3633C21.009 15.3554 20.8777 15.381 20.7588 15.4375C20.4611 15.5782 20.1326 15.6415 19.8039 15.6213C19.4752 15.6011 19.157 15.4981 18.8788 15.3219C18.6006 15.1457 18.3714 14.9021 18.2127 14.6136C18.0539 14.3251 17.9706 14.0011 17.9706 13.6718C17.9706 13.3425 18.0539 13.0186 18.2127 12.7301C18.3714 12.4416 18.6006 12.1979 18.8788 12.0217C19.157 11.8456 19.4752 11.7426 19.8039 11.7224C20.1326 11.7022 20.4611 11.7654 20.7588 11.9062C20.8779 11.9627 21.0093 11.9882 21.1409 11.9802C21.2725 11.9723 21.3999 11.9311 21.5114 11.8607C21.6228 11.7902 21.7145 11.6927 21.7781 11.5772C21.8417 11.4617 21.875 11.332 21.875 11.2001V7.0312C21.875 6.6168 21.7103 6.21937 21.4173 5.92635C21.1243 5.63332 20.7269 5.4687 20.3125 5.4687H16.7754C16.7899 5.339 16.7971 5.20858 16.7968 5.07808C16.796 4.59779 16.6972 4.12273 16.5065 3.68195C16.3157 3.24117 16.037 2.84395 15.6875 2.5146C15.2033 2.05989 14.6002 1.75164 13.9481 1.62556C13.2959 1.49948 12.6214 1.56073 12.0026 1.80221C11.3839 2.04369 10.8462 2.45552 10.4518 2.99C10.0574 3.52448 9.82257 4.15975 9.77438 4.82222C9.75937 5.03768 9.76395 5.25406 9.78805 5.4687H6.24997C5.83556 5.4687 5.43814 5.63332 5.14511 5.92635C4.85209 6.21937 4.68747 6.6168 4.68747 7.0312V10.1777C4.55777 10.1631 4.42735 10.156 4.29684 10.1562C3.8167 10.157 3.34177 10.2558 2.90114 10.4465C2.46052 10.6373 2.06348 10.916 1.73434 11.2656C1.40284 11.6157 1.14759 12.0309 0.984711 12.4847C0.821831 12.9386 0.754867 13.4212 0.788051 13.9023C0.844035 14.7493 1.20395 15.5477 1.8016 16.1505C2.39925 16.7534 3.19445 17.1202 4.04098 17.1835C4.25645 17.1986 4.47283 17.194 4.68747 17.1699V20.3125C4.68747 20.7269 4.85209 21.1243 5.14511 21.4173C5.43814 21.7103 5.83556 21.875 6.24997 21.875H20.3125C20.7269 21.875 21.1243 21.7103 21.4173 21.4173C21.7103 21.1243 21.875 20.7269 21.875 20.3125V16.1435C21.875 16.0115 21.8417 15.8816 21.778 15.766C21.7143 15.6504 21.6223 15.5528 21.5107 15.4824ZM20.3125 20.3125H6.24997V16.1435C6.25001 16.0117 6.21669 15.882 6.15311 15.7665C6.08954 15.651 5.99777 15.5535 5.88635 15.483C5.77494 15.4125 5.6475 15.3714 5.51591 15.3634C5.38432 15.3555 5.25285 15.3809 5.13375 15.4375C4.83606 15.5782 4.50761 15.6415 4.17893 15.6213C3.85024 15.6011 3.532 15.4981 3.25379 15.3219C2.97558 15.1457 2.74643 14.9021 2.58765 14.6136C2.42887 14.3251 2.3456 14.0011 2.3456 13.6718C2.3456 13.3425 2.42887 13.0186 2.58765 12.7301C2.74643 12.4416 2.97558 12.1979 3.25379 12.0217C3.532 11.8456 3.85024 11.7426 4.17893 11.7224C4.50761 11.7022 4.83606 11.7654 5.13375 11.9062C5.25285 11.9627 5.38432 11.9882 5.51591 11.9802C5.6475 11.9723 5.77494 11.9311 5.88635 11.8607C5.99777 11.7902 6.08954 11.6927 6.15311 11.5772C6.21669 11.4617 6.25001 11.332 6.24997 11.2001V7.0312H10.8095C10.9414 7.03124 11.0711 6.99792 11.1866 6.93435C11.302 6.87077 11.3996 6.779 11.47 6.66759C11.5405 6.55617 11.5816 6.42874 11.5896 6.29715C11.5976 6.16556 11.5721 6.03409 11.5156 5.91499C11.3748 5.6173 11.3116 5.28884 11.3318 4.96016C11.352 4.63148 11.4549 4.31324 11.6311 4.03503C11.8073 3.75682 12.051 3.52767 12.3395 3.36888C12.628 3.2101 12.9519 3.12684 13.2812 3.12684C13.6105 3.12684 13.9345 3.2101 14.223 3.36888C14.5115 3.52767 14.7551 3.75682 14.9313 4.03503C15.1075 4.31324 15.2105 4.63148 15.2307 4.96016C15.2509 5.28884 15.1876 5.6173 15.0468 5.91499C14.9903 6.03409 14.9649 6.16556 14.9728 6.29715C14.9808 6.42874 15.0219 6.55617 15.0924 6.66759C15.1629 6.779 15.2604 6.87077 15.3759 6.93435C15.4914 6.99792 15.6211 7.03124 15.7529 7.0312H20.3125V10.1787C20.0979 10.1541 19.8814 10.1495 19.666 10.165C18.7567 10.2294 17.908 10.6444 17.2989 11.3225C16.6897 12.0007 16.3678 12.8889 16.401 13.7998C16.4342 14.7108 16.8199 15.5732 17.4768 16.2052C18.1336 16.8372 19.0103 17.1894 19.9218 17.1875C20.0524 17.1877 20.1828 17.1805 20.3125 17.166V20.3125Z" fill="white"/>
</svg>
