<svg id="smile" width="25" height="26" viewBox="0 0 25 26" fill="none" xmlns="http://www.w3.org/2000/svg">
<path opacity="0.2" d="M21.875 12.7803C21.875 14.6345 21.3252 16.447 20.295 17.9887C19.2649 19.5305 17.8007 20.7321 16.0877 21.4416C14.3746 22.1512 12.4896 22.3369 10.671 21.9751C8.85246 21.6134 7.182 20.7205 5.87088 19.4094C4.55976 18.0983 3.66688 16.4278 3.30514 14.6092C2.94341 12.7907 3.12906 10.9057 3.83863 9.19262C4.54821 7.47956 5.74982 6.01538 7.29153 4.98525C8.83324 3.95511 10.6458 3.40527 12.5 3.40527C14.9864 3.40527 17.371 4.39299 19.1291 6.15115C20.8873 7.9093 21.875 10.2939 21.875 12.7803Z" fill="white"/>
<path d="M12.5 2.62402C10.4913 2.62402 8.52768 3.21968 6.85749 4.33566C5.18731 5.45164 3.88556 7.03783 3.11685 8.89364C2.34815 10.7495 2.14702 12.7915 2.5389 14.7617C2.93079 16.7318 3.89807 18.5414 5.31845 19.9618C6.73883 21.3822 8.5485 22.3495 10.5186 22.7414C12.4887 23.1333 14.5308 22.9321 16.3866 22.1634C18.2424 21.3947 19.8286 20.093 20.9446 18.4228C22.0606 16.7526 22.6563 14.789 22.6563 12.7803C22.6534 10.0875 21.5825 7.50591 19.6784 5.60186C17.7744 3.69781 15.1927 2.62687 12.5 2.62402ZM12.5 21.374C10.8003 21.374 9.13881 20.87 7.72557 19.9257C6.31234 18.9814 5.21086 17.6393 4.56041 16.069C3.90997 14.4987 3.73979 12.7707 4.07138 11.1037C4.40297 9.43669 5.22145 7.90543 6.42331 6.70357C7.62516 5.50172 9.15642 4.68324 10.8234 4.35165C12.4905 4.02006 14.2184 4.19024 15.7887 4.84068C17.359 5.49112 18.7012 6.59261 19.6454 8.00584C20.5897 9.41908 21.0938 11.0806 21.0938 12.7803C21.0912 15.0587 20.1849 17.243 18.5738 18.8541C16.9628 20.4652 14.7784 21.3714 12.5 21.374ZM7.8125 10.8271C7.8125 10.5954 7.88123 10.3688 8.01 10.1761C8.13877 9.98338 8.32179 9.83317 8.53592 9.74448C8.75005 9.65578 8.98568 9.63257 9.213 9.67779C9.44032 9.72301 9.64913 9.83462 9.81302 9.99851C9.97691 10.1624 10.0885 10.3712 10.1337 10.5985C10.179 10.8258 10.1557 11.0615 10.0671 11.2756C9.97835 11.4897 9.82815 11.6728 9.63544 11.8015C9.44272 11.9303 9.21615 11.999 8.98438 11.999C8.67358 11.999 8.37551 11.8756 8.15574 11.6558C7.93597 11.436 7.8125 11.1379 7.8125 10.8271ZM17.9688 10.8271C17.9688 11.0343 17.8864 11.2331 17.7399 11.3796C17.5934 11.5261 17.3947 11.6084 17.1875 11.6084H14.8438C14.6366 11.6084 14.4378 11.5261 14.2913 11.3796C14.1448 11.2331 14.0625 11.0343 14.0625 10.8271C14.0625 10.6199 14.1448 10.4212 14.2913 10.2747C14.4378 10.1282 14.6366 10.0459 14.8438 10.0459H17.1875C17.3947 10.0459 17.5934 10.1282 17.7399 10.2747C17.8864 10.4212 17.9688 10.6199 17.9688 10.8271ZM17.082 15.5146C16.0772 17.252 14.4072 18.249 12.5 18.249C10.5928 18.249 8.92286 17.2529 7.91797 15.5146C7.86145 15.4257 7.82349 15.3263 7.80639 15.2223C7.78929 15.1184 7.7934 15.012 7.81846 14.9097C7.84353 14.8073 7.88904 14.7111 7.95226 14.6268C8.01547 14.5425 8.09509 14.4719 8.18631 14.4191C8.27753 14.3664 8.37848 14.3327 8.48308 14.32C8.58767 14.3073 8.69376 14.3159 8.79496 14.3452C8.89615 14.3746 8.99036 14.4241 9.07192 14.4908C9.15348 14.5575 9.2207 14.64 9.26954 14.7334C9.99903 15.9941 11.1455 16.6865 12.5 16.6865C13.8545 16.6865 15.001 15.9932 15.7305 14.7334C15.7793 14.64 15.8465 14.5575 15.9281 14.4908C16.0097 14.4241 16.1039 14.3746 16.2051 14.3452C16.3062 14.3159 16.4123 14.3073 16.5169 14.32C16.6215 14.3327 16.7225 14.3664 16.8137 14.4191C16.9049 14.4719 16.9845 14.5425 17.0478 14.6268C17.111 14.7111 17.1565 14.8073 17.1815 14.9097C17.2066 15.012 17.2107 15.1184 17.1936 15.2223C17.1765 15.3263 17.1386 15.4257 17.082 15.5146Z" fill="white"/>
</svg>
