<svg id="thunderbolt" width="13" height="15" viewBox="0 0 13 15" fill="none" xmlns="http://www.w3.org/2000/svg">
<g filter="url(#filter0_d_232_5)">
<path fill-rule="evenodd" clip-rule="evenodd" d="M4.87739 0.79482C4.95813 0.615393 5.13659 0.5 5.33335 0.5H11C11.1783 0.5 11.343 0.59488 11.4325 0.749033C11.5219 0.903193 11.5225 1.09332 11.4341 1.24807L9.19495 5.16667H11.6667C11.8689 5.16667 12.0512 5.28849 12.1286 5.47533C12.206 5.66216 12.1632 5.8772 12.0202 6.0202L4.6869 13.3535C4.52799 13.5125 4.28257 13.5458 4.087 13.4351C3.89143 13.3244 3.79377 13.0967 3.84828 12.8787L5.02629 8.16667H2.33335C2.16369 8.16667 2.00559 8.0806 1.91347 7.93813C1.82135 7.79567 1.80776 7.6162 1.87739 7.46147L4.87739 0.79482Z" fill="url(#paint0_linear_232_5)"/>
</g>
<defs>
<filter id="filter0_d_232_5" x="0.333344" y="5.96046e-08" width="12.3333" height="15" filterUnits="userSpaceOnUse" color-interpolation-filters="sRGB">
<feFlood flood-opacity="0" result="BackgroundImageFix"/>
<feColorMatrix in="SourceAlpha" type="matrix" values="0 0 0 0 0 0 0 0 0 0 0 0 0 0 0 0 0 0 127 0" result="hardAlpha"/>
<feOffset dx="-0.5" dy="0.5"/>
<feGaussianBlur stdDeviation="0.5"/>
<feComposite in2="hardAlpha" operator="out"/>
<feColorMatrix type="matrix" values="0 0 0 0 0.0117647 0 0 0 0 0.027451 0 0 0 0 0.0705882 0 0 0 0.06 0"/>
<feBlend mode="normal" in2="BackgroundImageFix" result="effect1_dropShadow_232_5"/>
<feBlend mode="normal" in="SourceGraphic" in2="effect1_dropShadow_232_5" result="shape"/>
</filter>
<linearGradient id="paint0_linear_232_5" x1="7.00002" y1="4.29167" x2="7.00002" y2="11.6042" gradientUnits="userSpaceOnUse">
<stop stop-color="#1F2937"/>
<stop offset="1" stop-color="#6B7280"/>
</linearGradient>
</defs>
</svg>
