<svg xmlns="http://www.w3.org/2000/svg" version="1.1" xmlns:xlink="http://www.w3.org/1999/xlink" width="437.7" height="436.23"><svg id="SvgjsSvg1008" data-name="Layer 1" xmlns="http://www.w3.org/2000/svg" viewBox="0 0 437.7 436.23">
  <path d="M99.88,36.22v363c-6.63-.35-13.32-6.82-18.47-11.03-108.85-88.81-108.24-251.58,0-339.95l18.47-12.03Z"></path>
  <path d="M143.88,91.22l4.49,1.01c53.88,65.26,97.46,138.27,151.97,203.03l.53,36.95c-14.69,3.04-29.61,2.41-44.53,2.97-25.06.94-50.8,2.07-76,1.08-7.47-.29-19.76-.7-26.7-2.3-2.06-.48-9.75-3.11-9.75-5.25V91.22Z"></path>
  <path d="M300.88,219.72L145.9,15.72c47.05-22.8,108.12-19.64,154.98,2v202Z"></path>
  <path d="M344.88,394.22v-95.5l88.51-117.49c1.55,6.67,2.83,13.67,3.48,20.51,6.36,66.74-24.35,143.13-77.52,184.46-4.14,3.22-9.13,7.56-14.47,8.03Z"></path>
  <path d="M300.75,377.36l-.33,43.91c-1.25,1.87-28.27,8.58-32.53,9.47-31.21,6.53-62.72,7.72-94.02,1-11.73-2.52-29.67-5.34-31.73-19.27-.93-6.28.4-24.23,1.99-30.49,1.17-4.63,2.93-5.5,7.36-6.63,9.54-2.43,28.43-2.81,38.84-3.15,17.71-.58,35.45.55,53,1.08,19.14.58,38.78-.68,57.41,4.09Z"></path>
  <path d="M344.88,220.22V43.22c15.32,4.92,29.23,18.9,39.51,30.99,13.35,15.68,24.24,33.62,32.42,52.52-16.25,26.42-35.11,53.13-54.54,77.39-2.58,3.22-10.12,13.56-12.85,15.15-1.6.94-2.69,1.21-4.55.95Z"></path>
</svg><style>@media (prefers-color-scheme: light) { :root { filter: none; } }
@media (prefers-color-scheme: dark) { :root { filter: none; } }
</style></svg>